<svg xmlns="http://www.w3.org/2000/svg" viewBox="0 0 119.72 127.2"><defs><style>.cls-1{fill:#ba544d;}</style></defs><title>Arch</title><g id="Layer_2" data-name="Layer 2"><g id="Arch_Ellipse_" data-name="Arch (Ellipse)"><rect class="cls-1" x="0.09" y="62.5" width="8.77" height="12.36" rx="1" ry="1"/><rect class="cls-1" x="0.09" y="79.85" width="8.77" height="22.33" rx="1" ry="1"/><rect class="cls-1" x="0.09" y="104.77" width="8.77" height="22.33" rx="1" ry="1"/><rect class="cls-1" x="12.55" y="62.5" width="8.77" height="12.36" rx="1" ry="1"/><rect class="cls-1" x="12.55" y="79.85" width="8.77" height="22.33" rx="1" ry="1"/><rect class="cls-1" x="12.55" y="104.77" width="8.77" height="22.33" rx="1" ry="1"/><rect class="cls-1" x="24.91" y="62.5" width="8.77" height="12.36" rx="1" ry="1"/><rect class="cls-1" x="24.91" y="79.85" width="8.77" height="22.33" rx="1" ry="1"/><rect class="cls-1" x="24.91" y="104.77" width="8.77" height="22.33" rx="1" ry="1"/><path class="cls-1" d="M13.57,52.43h6.78a1,1,0,0,0,1-1,30.71,30.71,0,0,1,2.49-11.21,1,1,0,0,0-.47-1.3L17.8,36.23c-1-.48-1.6-.27-1.83.24a38.8,38.8,0,0,0-3.41,14.94A1,1,0,0,0,13.57,52.43Z"/><path class="cls-1" d="M54.82,19.41V13a1,1,0,0,0-1-1,43.62,43.62,0,0,0-17.45,4,1,1,0,0,0-.47,1.35l2.84,5.81a1,1,0,0,0,1.33.46,34.41,34.41,0,0,1,13.79-3.26A1,1,0,0,0,54.82,19.41Z"/><path class="cls-1" d="M20.12,31.11l5.51,3.72A1,1,0,0,0,27,34.56,33,33,0,0,1,34.42,27a1,1,0,0,0,.25-1.36L31,20.23A1,1,0,0,0,29.61,20a41.55,41.55,0,0,0-9.76,9.73A1,1,0,0,0,20.12,31.11Z"/><path class="cls-1" d="M25.94,52.43h6.78a1,1,0,0,0,1-1,19.29,19.29,0,0,1,1.21-5.85,1,1,0,0,0-.49-1.27l-6.06-3a1,1,0,0,0-1.36.5,27.6,27.6,0,0,0-2.08,9.52A1,1,0,0,0,25.94,52.43Z"/><path class="cls-1" d="M54.82,31.24V24.85a1,1,0,0,0-1-1,30.73,30.73,0,0,0-12.23,2.94,1,1,0,0,0-.46,1.34l2.83,5.81a1,1,0,0,0,1.35.45,21.79,21.79,0,0,1,8.56-2.14A1,1,0,0,0,54.82,31.24Z"/><path class="cls-1" d="M30.22,37.93l5.52,3.71a1,1,0,0,0,1.39-.28A20.83,20.83,0,0,1,41.19,37a1,1,0,0,0,.22-1.35L37.74,30.2A1,1,0,0,0,36.32,30,29.23,29.23,0,0,0,30,36.53,1,1,0,0,0,30.22,37.93Z"/><path class="cls-1" d="M27.84,15.53,24.2,10.12a1,1,0,0,0-1.4-.27A53.72,53.72,0,0,0,9.59,22.77a1,1,0,0,0,.26,1.41l5.51,3.72a1,1,0,0,0,1.37-.25A45,45,0,0,1,27.58,16.9,1,1,0,0,0,27.84,15.53Z"/><path class="cls-1" d="M1,52.43H7.78a1,1,0,0,0,1-1A42.4,42.4,0,0,1,12.6,34.78a1,1,0,0,0-.46-1.31l-6-2.94A1,1,0,0,0,4.76,31,50.23,50.23,0,0,0,0,51.41,1,1,0,0,0,1,52.43Z"/><path class="cls-1" d="M54.82,7.4V1a1,1,0,0,0-1-1A56.6,56.6,0,0,0,31.05,5.16a1,1,0,0,0-.48,1.35l2.83,5.81a1,1,0,0,0,1.32.46A47.65,47.65,0,0,1,53.84,8.39,1,1,0,0,0,54.82,7.4Z"/><rect class="cls-1" x="110.86" y="62.6" width="8.77" height="12.36" rx="1" ry="1" transform="translate(230.48 137.56) rotate(-180)"/><rect class="cls-1" x="110.86" y="79.95" width="8.77" height="22.33" rx="1" ry="1" transform="translate(230.48 182.22) rotate(-180)"/><rect class="cls-1" x="110.86" y="104.87" width="8.77" height="22.33" rx="1" ry="1" transform="translate(230.48 232.07) rotate(-180)"/><rect class="cls-1" x="98.39" y="62.6" width="8.77" height="12.36" rx="1" ry="1" transform="translate(205.56 137.56) rotate(-180)"/><rect class="cls-1" x="98.39" y="79.95" width="8.77" height="22.33" rx="1" ry="1" transform="translate(205.56 182.22) rotate(-180)"/><rect class="cls-1" x="98.39" y="104.87" width="8.77" height="22.33" rx="1" ry="1" transform="translate(205.56 232.07) rotate(-180)"/><rect class="cls-1" x="86.03" y="62.6" width="8.77" height="12.36" rx="1" ry="1" transform="translate(180.84 137.56) rotate(-180)"/><rect class="cls-1" x="86.03" y="79.95" width="8.77" height="22.33" rx="1" ry="1" transform="translate(180.84 182.22) rotate(-180)"/><rect class="cls-1" x="86.03" y="104.87" width="8.77" height="22.33" rx="1" ry="1" transform="translate(180.84 232.07) rotate(-180)"/><path class="cls-1" d="M106.15,52.53H99.37a1,1,0,0,1-1-1,30.92,30.92,0,0,0-2.49-11.21,1,1,0,0,1,.47-1.3l6-2.95a1,1,0,0,1,1.35.48,38.61,38.61,0,0,1,3.4,14.94A1,1,0,0,1,106.15,52.53Z"/><path class="cls-1" d="M64.9,19.51V13.12a1,1,0,0,1,1-1,43.62,43.62,0,0,1,17.45,4,1,1,0,0,1,.47,1.35L81,23.31a1,1,0,0,1-1.33.46,34.41,34.41,0,0,0-13.79-3.26A1,1,0,0,1,64.9,19.51Z"/><path class="cls-1" d="M99.6,31.21l-5.51,3.72a1,1,0,0,1-1.38-.27,33.17,33.17,0,0,0-7.41-7.55,1,1,0,0,1-.25-1.36l3.65-5.42a1,1,0,0,1,1.41-.26,41.74,41.74,0,0,1,9.76,9.73A1,1,0,0,1,99.6,31.21Z"/><path class="cls-1" d="M93.78,52.53H87a1,1,0,0,1-1-1,19.29,19.29,0,0,0-1.21-5.85,1,1,0,0,1,.49-1.27l6.06-3a1,1,0,0,1,1.36.5,27.6,27.6,0,0,1,2.08,9.52A1,1,0,0,1,93.78,52.53Z"/><path class="cls-1" d="M64.9,31.34V25a1,1,0,0,1,1-1,30.77,30.77,0,0,1,12.23,2.94,1,1,0,0,1,.46,1.34L75.77,34a1,1,0,0,1-1.35.45,21.74,21.74,0,0,0-8.55-2.14A1,1,0,0,1,64.9,31.34Z"/><path class="cls-1" d="M89.49,38,84,41.74a1,1,0,0,1-1.39-.28,20.83,20.83,0,0,0-4.06-4.38,1,1,0,0,1-.22-1.35L82,30.3a1,1,0,0,1,1.42-.25,29.23,29.23,0,0,1,6.37,6.58A1,1,0,0,1,89.49,38Z"/><path class="cls-1" d="M91.88,15.63l3.64-5.41a1,1,0,0,1,1.4-.27,53.89,53.89,0,0,1,13.21,12.92,1,1,0,0,1-.26,1.41L104.36,28a1,1,0,0,1-1.37-.25A45.22,45.22,0,0,0,92.14,17,1,1,0,0,1,91.88,15.63Z"/><path class="cls-1" d="M118.71,52.53h-6.77a1,1,0,0,1-1-1,42.23,42.23,0,0,0-3.83-16.67,1,1,0,0,1,.47-1.31l6-2.94a1,1,0,0,1,1.35.47,50.4,50.4,0,0,1,4.76,20.41A1,1,0,0,1,118.71,52.53Z"/><path class="cls-1" d="M64.9,7.5V1.11a1,1,0,0,1,1-1A56.6,56.6,0,0,1,88.67,5.26a1,1,0,0,1,.48,1.35l-2.83,5.81a1,1,0,0,1-1.32.46A47.65,47.65,0,0,0,65.88,8.49,1,1,0,0,1,64.9,7.5Z"/></g></g></svg>